{
 "cells": [
  {
   "cell_type": "code",
   "execution_count": 3,
   "id": "8b8e8a70-48b6-4be6-89d6-b2e4f22e57c0",
   "metadata": {},
   "outputs": [],
   "source": [
    "import subprocess\n",
    "import random\n",
    "import os\n",
    "\n",
    "def concatenate_videos(video_files, output_file, overlay_videos, short_overlay_videos, effects_next):\n",
    "    print('Создание видео путем склеивания без переходов')\n",
    "    \n",
    "    with open(\"file_list.txt\", \"w\") as f:\n",
    "        for video in video_files:\n",
    "            f.write(f\"file '{video}'\\n\")\n",
    "    \n",
    "    command = [\n",
    "        'ffmpeg',\n",
    "        '-f', 'concat',\n",
    "        '-safe', '0',\n",
    "        '-i', 'file_list.txt',\n",
    "        '-c', 'copy',\n",
    "        '-y', output_file\n",
    "    ]\n",
    "    \n",
    "    print(' '.join(command))\n",
    "    try:\n",
    "        subprocess.run(command, shell=False, check=True)\n",
    "        print(\"Видео успешно склеены!\")\n",
    "    except subprocess.CalledProcessError as e:\n",
    "        print(\"Ошибка при склеивании видео:\", e)\n",
    "\n",
    "    durations = []\n",
    "    \n",
    "    for i in range(len(video_files) - 1):\n",
    "        video_duration = get_video_duration(video_files[i])\n",
    "        if effects_next[i]:\n",
    "            durations.append([effects_next[i], float(video_duration)])       \n",
    "    \n",
    "    apply_chromakey_with_overlays(output_file, overlay_videos, short_overlay_videos, durations,)\n",
    "\n",
    "\n",
    "def get_video_duration(video_file):\n",
    "    result = subprocess.run([\"ffprobe\", \"-v\", \"error\", \"-show_entries\", \"format=duration\", \"-of\", \"default=noprint_wrappers=1:nokey=1\", video_file], stdout=subprocess.PIPE, stderr=subprocess.PIPE)\n",
    "    return float(result.stdout)\n",
    "\n",
    "\n",
    "\n",
    "\n",
    "def apply_chromakey_with_overlays(base_video, overlay_videos, short_overlay_videos, durations):\n",
    "    # Выходное видео сохраняется с тем же именем\n",
    "    temp_file = \"videos/temp.mp4\"\n",
    "\n",
    "    filter_complex = []\n",
    "    inputs = [f'-i {base_video}']\n",
    "    for i, dur in enumerate(durations):\n",
    "        if dur[0] == 1:\n",
    "            inputs.append(f'-i {random.choice(overlay_videos)}')\n",
    "        elif dur[0] == 2: \n",
    "            inputs.append(f'-i {random.choice(short_overlay_videos)}')\n",
    "\n",
    "    \n",
    "    overlay_streams = []\n",
    "\n",
    "    duration = 0 \n",
    "    for i, dur in enumerate(durations):\n",
    "        if dur[0] == 1:\n",
    "            tr = f'tr{i}'\n",
    "            over = f'over{i}'\n",
    "            delay = duration + durations[i][1] - 2.5  \n",
    "            duration += durations[i][1]\n",
    "            filter_complex.append(\n",
    "                f'[{i+1}:v]chromakey=0x00FF00:0.1:0.2,setpts=PTS+{delay}/TB[{tr}]'\n",
    "            )\n",
    "            overlay_streams.append(tr)\n",
    "        elif dur[0] == 2:\n",
    "            tr = f'tr{i}'\n",
    "            over = f'over{i}'\n",
    "            delay = duration + durations[i][1] - 0.6\n",
    "            duration += durations[i][1]\n",
    "            filter_complex.append(\n",
    "                f'[{i+1}:v]chromakey=0x00FF00:0.1:0.2,setpts=PTS+{delay}/TB[{tr}]'\n",
    "            )\n",
    "            overlay_streams.append(tr)   \n",
    "            \n",
    "    base = '[0:v]'\n",
    "    for i, over in enumerate(overlay_streams):\n",
    "        output = f'base{i+1}' if i < len(overlay_streams) - 1 else 'v'\n",
    "        filter_complex.append(f'{base}[{over}]overlay[{output}]')\n",
    "        base = f'[{output}]'\n",
    "    \n",
    "    filter_complex_str = '; '.join(filter_complex)\n",
    "    \n",
    "    command = [\n",
    "        'ffmpeg',\n",
    "        *inputs,\n",
    "        '-filter_complex', f'\"{filter_complex_str}\"',\n",
    "        '-map', '[v]',\n",
    "        '-c:v', 'libx264',\n",
    "        '-c:a', 'aac',\n",
    "        '-preset', 'fast',\n",
    "        '-y', temp_file  # Перезаписываем исходный файл\n",
    "    ]\n",
    "\n",
    "    print(' '.join(command))\n",
    "    \n",
    "    subprocess.run(' '.join(command), shell=True)\n",
    "\n",
    "    os.replace(temp_file, base_video)\n",
    "\n",
    "    return base_video  # Возвращаем путь к перезаписанному файлу\n"
   ]
  },
  {
   "cell_type": "code",
   "execution_count": 4,
   "id": "146836c7-aa6e-4bc9-be26-54afd4032114",
   "metadata": {},
   "outputs": [
    {
     "name": "stdout",
     "output_type": "stream",
     "text": [
      "Создание видео путем склеивания без переходов\n",
      "ffmpeg -f concat -safe 0 -i file_list.txt -c copy -y output.mp4\n",
      "Видео успешно склеены!\n"
     ]
    },
    {
     "name": "stderr",
     "output_type": "stream",
     "text": [
      "ffmpeg version 4.4.2-0ubuntu0.22.04.1 Copyright (c) 2000-2021 the FFmpeg developers\n",
      "  built with gcc 11 (Ubuntu 11.2.0-19ubuntu1)\n",
      "  configuration: --prefix=/usr --extra-version=0ubuntu0.22.04.1 --toolchain=hardened --libdir=/usr/lib/x86_64-linux-gnu --incdir=/usr/include/x86_64-linux-gnu --arch=amd64 --enable-gpl --disable-stripping --enable-gnutls --enable-ladspa --enable-libaom --enable-libass --enable-libbluray --enable-libbs2b --enable-libcaca --enable-libcdio --enable-libcodec2 --enable-libdav1d --enable-libflite --enable-libfontconfig --enable-libfreetype --enable-libfribidi --enable-libgme --enable-libgsm --enable-libjack --enable-libmp3lame --enable-libmysofa --enable-libopenjpeg --enable-libopenmpt --enable-libopus --enable-libpulse --enable-librabbitmq --enable-librubberband --enable-libshine --enable-libsnappy --enable-libsoxr --enable-libspeex --enable-libsrt --enable-libssh --enable-libtheora --enable-libtwolame --enable-libvidstab --enable-libvorbis --enable-libvpx --enable-libwebp --enable-libx265 --enable-libxml2 --enable-libxvid --enable-libzimg --enable-libzmq --enable-libzvbi --enable-lv2 --enable-omx --enable-openal --enable-opencl --enable-opengl --enable-sdl2 --enable-pocketsphinx --enable-librsvg --enable-libmfx --enable-libdc1394 --enable-libdrm --enable-libiec61883 --enable-chromaprint --enable-frei0r --enable-libx264 --enable-shared\n",
      "  libavutil      56. 70.100 / 56. 70.100\n",
      "  libavcodec     58.134.100 / 58.134.100\n",
      "  libavformat    58. 76.100 / 58. 76.100\n",
      "  libavdevice    58. 13.100 / 58. 13.100\n",
      "  libavfilter     7.110.100 /  7.110.100\n",
      "  libswscale      5.  9.100 /  5.  9.100\n",
      "  libswresample   3.  9.100 /  3.  9.100\n",
      "  libpostproc    55.  9.100 / 55.  9.100\n",
      "[mov,mp4,m4a,3gp,3g2,mj2 @ 0x55a5e557abc0] Auto-inserting h264_mp4toannexb bitstream filter\n",
      "Input #0, concat, from 'file_list.txt':\n",
      "  Duration: N/A, start: 0.000000, bitrate: 584 kb/s\n",
      "  Stream #0:0(und): Video: h264 (High) (avc1 / 0x31637661), yuv420p, 1280x720, 584 kb/s, 30 fps, 30 tbr, 15360 tbn, 60 tbc\n",
      "    Metadata:\n",
      "      handler_name    : VideoHandler\n",
      "      vendor_id       : [0][0][0][0]\n",
      "Output #0, mp4, to 'output.mp4':\n",
      "  Metadata:\n",
      "    encoder         : Lavf58.76.100\n",
      "  Stream #0:0(und): Video: h264 (High) (avc1 / 0x31637661), yuv420p, 1280x720, q=2-31, 584 kb/s, 30 fps, 30 tbr, 15360 tbn, 15360 tbc\n",
      "    Metadata:\n",
      "      handler_name    : VideoHandler\n",
      "      vendor_id       : [0][0][0][0]\n",
      "Stream mapping:\n",
      "  Stream #0:0 -> #0:0 (copy)\n",
      "Press [q] to stop, [?] for help\n",
      "[mov,mp4,m4a,3gp,3g2,mj2 @ 0x55a5e557bb00] Auto-inserting h264_mp4toannexb bitstream filter\n",
      "[mov,mp4,m4a,3gp,3g2,mj2 @ 0x55a5e557c200] Auto-inserting h264_mp4toannexb bitstream filter\n",
      "[mov,mp4,m4a,3gp,3g2,mj2 @ 0x55a5e557bb00] Auto-inserting h264_mp4toannexb bitstream filter\n",
      "frame= 1514 fps=0.0 q=-1.0 Lsize=    5682kB time=00:00:50.36 bitrate= 924.1kbits/s speed=1.13e+03x    \n",
      "video:5665kB audio:0kB subtitle:0kB other streams:0kB global headers:0kB muxing overhead: 0.285986%\n"
     ]
    },
    {
     "name": "stdout",
     "output_type": "stream",
     "text": [
      "ffmpeg -i output.mp4 -i videos/7.mp4 -i videos/3.mp4 -i videos/7.mp4 -filter_complex \"[1:v]chromakey=0x70de77:0.1:0.2,setpts=PTS+11.034/TB[tr0]; [2:v]chromakey=0x70de77:0.1:0.2,setpts=PTS+26.534/TB[tr1]; [3:v]chromakey=0x70de77:0.1:0.2,setpts=PTS+38.168/TB[tr2]; [0:v][tr0]overlay[base1]; [base1][tr1]overlay[base2]; [base2][tr2]overlay[v]\" -map [v] -c:v libx264 -c:a aac -preset fast -y videos/temp.mp4\n"
     ]
    },
    {
     "name": "stderr",
     "output_type": "stream",
     "text": [
      "ffmpeg version 4.4.2-0ubuntu0.22.04.1 Copyright (c) 2000-2021 the FFmpeg developers\n",
      "  built with gcc 11 (Ubuntu 11.2.0-19ubuntu1)\n",
      "  configuration: --prefix=/usr --extra-version=0ubuntu0.22.04.1 --toolchain=hardened --libdir=/usr/lib/x86_64-linux-gnu --incdir=/usr/include/x86_64-linux-gnu --arch=amd64 --enable-gpl --disable-stripping --enable-gnutls --enable-ladspa --enable-libaom --enable-libass --enable-libbluray --enable-libbs2b --enable-libcaca --enable-libcdio --enable-libcodec2 --enable-libdav1d --enable-libflite --enable-libfontconfig --enable-libfreetype --enable-libfribidi --enable-libgme --enable-libgsm --enable-libjack --enable-libmp3lame --enable-libmysofa --enable-libopenjpeg --enable-libopenmpt --enable-libopus --enable-libpulse --enable-librabbitmq --enable-librubberband --enable-libshine --enable-libsnappy --enable-libsoxr --enable-libspeex --enable-libsrt --enable-libssh --enable-libtheora --enable-libtwolame --enable-libvidstab --enable-libvorbis --enable-libvpx --enable-libwebp --enable-libx265 --enable-libxml2 --enable-libxvid --enable-libzimg --enable-libzmq --enable-libzvbi --enable-lv2 --enable-omx --enable-openal --enable-opencl --enable-opengl --enable-sdl2 --enable-pocketsphinx --enable-librsvg --enable-libmfx --enable-libdc1394 --enable-libdrm --enable-libiec61883 --enable-chromaprint --enable-frei0r --enable-libx264 --enable-shared\n",
      "  libavutil      56. 70.100 / 56. 70.100\n",
      "  libavcodec     58.134.100 / 58.134.100\n",
      "  libavformat    58. 76.100 / 58. 76.100\n",
      "  libavdevice    58. 13.100 / 58. 13.100\n",
      "  libavfilter     7.110.100 /  7.110.100\n",
      "  libswscale      5.  9.100 /  5.  9.100\n",
      "  libswresample   3.  9.100 /  3.  9.100\n",
      "  libpostproc    55.  9.100 / 55.  9.100\n",
      "Input #0, mov,mp4,m4a,3gp,3g2,mj2, from 'output.mp4':\n",
      "  Metadata:\n",
      "    major_brand     : isom\n",
      "    minor_version   : 512\n",
      "    compatible_brands: isomiso2avc1mp41\n",
      "    encoder         : Lavf58.76.100\n",
      "  Duration: 00:00:50.47, start: 0.000000, bitrate: 922 kb/s\n",
      "  Stream #0:0(und): Video: h264 (High) (avc1 / 0x31637661), yuv420p, 1280x720, 919 kb/s, 30 fps, 30 tbr, 15360 tbn, 60 tbc (default)\n",
      "    Metadata:\n",
      "      handler_name    : VideoHandler\n",
      "      vendor_id       : [0][0][0][0]\n",
      "Input #1, mov,mp4,m4a,3gp,3g2,mj2, from 'videos/7.mp4':\n",
      "  Metadata:\n",
      "    major_brand     : isom\n",
      "    minor_version   : 512\n",
      "    compatible_brands: isomiso2avc1mp41\n",
      "    encoder         : Lavf61.7.100\n",
      "  Duration: 00:00:01.18, start: 0.000000, bitrate: 4270 kb/s\n",
      "  Stream #1:0(und): Audio: aac (LC) (mp4a / 0x6134706D), 44100 Hz, stereo, fltp, 2 kb/s (default)\n",
      "    Metadata:\n",
      "      handler_name    : SoundHandler\n",
      "      vendor_id       : [0][0][0][0]\n",
      "  Stream #1:1(und): Video: h264 (High) (avc1 / 0x31637661), yuv420p(tv, bt709), 1920x1080, 4297 kb/s, 30.86 fps, 30 tbr, 1000k tbn, 2000k tbc (default)\n",
      "    Metadata:\n",
      "      handler_name    : VideoHandler\n",
      "      vendor_id       : [0][0][0][0]\n",
      "      encoder         : Lavc61.19.100 libx264\n",
      "Input #2, mov,mp4,m4a,3gp,3g2,mj2, from 'videos/3.mp4':\n",
      "  Metadata:\n",
      "    major_brand     : isom\n",
      "    minor_version   : 512\n",
      "    compatible_brands: isomiso2avc1mp41\n",
      "    encoder         : Lavf61.7.100\n",
      "  Duration: 00:00:01.14, start: 0.000000, bitrate: 2931 kb/s\n",
      "  Stream #2:0(und): Audio: aac (LC) (mp4a / 0x6134706D), 44100 Hz, stereo, fltp, 2 kb/s (default)\n",
      "    Metadata:\n",
      "      handler_name    : SoundHandler\n",
      "      vendor_id       : [0][0][0][0]\n",
      "  Stream #2:1(und): Video: h264 (High) (avc1 / 0x31637661), yuv420p(tv, bt709), 1280x720, 2926 kb/s, 30.88 fps, 30 tbr, 1000k tbn, 2000k tbc (default)\n",
      "    Metadata:\n",
      "      handler_name    : VideoHandler\n",
      "      vendor_id       : [0][0][0][0]\n",
      "      encoder         : Lavc61.19.100 libx264\n",
      "Input #3, mov,mp4,m4a,3gp,3g2,mj2, from 'videos/7.mp4':\n",
      "  Metadata:\n",
      "    major_brand     : isom\n",
      "    minor_version   : 512\n",
      "    compatible_brands: isomiso2avc1mp41\n",
      "    encoder         : Lavf61.7.100\n",
      "  Duration: 00:00:01.18, start: 0.000000, bitrate: 4270 kb/s\n",
      "  Stream #3:0(und): Audio: aac (LC) (mp4a / 0x6134706D), 44100 Hz, stereo, fltp, 2 kb/s (default)\n",
      "    Metadata:\n",
      "      handler_name    : SoundHandler\n",
      "      vendor_id       : [0][0][0][0]\n",
      "  Stream #3:1(und): Video: h264 (High) (avc1 / 0x31637661), yuv420p(tv, bt709), 1920x1080, 4297 kb/s, 30.86 fps, 30 tbr, 1000k tbn, 2000k tbc (default)\n",
      "    Metadata:\n",
      "      handler_name    : VideoHandler\n",
      "      vendor_id       : [0][0][0][0]\n",
      "      encoder         : Lavc61.19.100 libx264\n",
      "Stream mapping:\n",
      "  Stream #0:0 (h264) -> overlay:main\n",
      "  Stream #1:1 (h264) -> chromakey\n",
      "  Stream #2:1 (h264) -> chromakey\n",
      "  Stream #3:1 (h264) -> chromakey\n",
      "  overlay -> Stream #0:0 (libx264)\n",
      "Press [q] to stop, [?] for help\n",
      "[libx264 @ 0x560510a9cb40] using cpu capabilities: MMX2 SSE2Fast SSSE3 SSE4.2 AVX FMA3 BMI2 AVX2\n",
      "[libx264 @ 0x560510a9cb40] profile High, level 3.1, 4:2:0, 8-bit\n",
      "[libx264 @ 0x560510a9cb40] 264 - core 163 r3060 5db6aa6 - H.264/MPEG-4 AVC codec - Copyleft 2003-2021 - http://www.videolan.org/x264.html - options: cabac=1 ref=2 deblock=1:0:0 analyse=0x3:0x113 me=hex subme=6 psy=1 psy_rd=1.00:0.00 mixed_ref=1 me_range=16 chroma_me=1 trellis=1 8x8dct=1 cqm=0 deadzone=21,11 fast_pskip=1 chroma_qp_offset=-2 threads=22 lookahead_threads=3 sliced_threads=0 nr=0 decimate=1 interlaced=0 bluray_compat=0 constrained_intra=0 bframes=3 b_pyramid=2 b_adapt=1 b_bias=0 direct=1 weightb=1 open_gop=0 weightp=1 keyint=250 keyint_min=25 scenecut=40 intra_refresh=0 rc_lookahead=30 rc=crf mbtree=1 crf=23.0 qcomp=0.60 qpmin=0 qpmax=69 qpstep=4 ip_ratio=1.40 aq=1:1.00\n",
      "Output #0, mp4, to 'videos/temp.mp4':\n",
      "  Metadata:\n",
      "    major_brand     : isom\n",
      "    minor_version   : 512\n",
      "    compatible_brands: isomiso2avc1mp41\n",
      "    encoder         : Lavf58.76.100\n",
      "  Stream #0:0: Video: h264 (avc1 / 0x31637661), yuv420p(progressive), 1280x720, q=2-31, 30 fps, 15360 tbn (default)\n",
      "    Metadata:\n",
      "      encoder         : Lavc58.134.100 libx264\n",
      "    Side data:\n",
      "      cpb: bitrate max/min/avg: 0/0/0 buffer size: 0 vbv_delay: N/A\n",
      "frame= 1514 fps=137 q=-1.0 Lsize=    2920kB time=00:00:50.36 bitrate= 474.9kbits/s speed=4.55x    \n",
      "video:2901kB audio:0kB subtitle:0kB other streams:0kB global headers:0kB muxing overhead: 0.630076%\n",
      "[libx264 @ 0x560510a9cb40] frame I:8     Avg QP:16.58  size: 51634\n",
      "[libx264 @ 0x560510a9cb40] frame P:422   Avg QP:19.31  size:  4662\n",
      "[libx264 @ 0x560510a9cb40] frame B:1084  Avg QP:23.28  size:   544\n",
      "[libx264 @ 0x560510a9cb40] consecutive B-frames:  3.8%  1.6%  1.6% 93.0%\n",
      "[libx264 @ 0x560510a9cb40] mb I  I16..4: 11.4% 71.2% 17.4%\n",
      "[libx264 @ 0x560510a9cb40] mb P  I16..4:  0.8%  1.9%  0.2%  P16..4: 25.0%  6.3%  3.3%  0.0%  0.0%    skip:62.5%\n",
      "[libx264 @ 0x560510a9cb40] mb B  I16..4:  0.1%  0.1%  0.0%  B16..8:  6.5%  0.3%  0.0%  direct: 0.8%  skip:92.0%  L0:42.0% L1:55.0% BI: 3.0%\n",
      "[libx264 @ 0x560510a9cb40] 8x8 transform intra:64.6% inter:81.0%\n",
      "[libx264 @ 0x560510a9cb40] coded y,uvDC,uvAC intra: 39.4% 52.9% 26.4% inter: 2.2% 3.1% 0.1%\n",
      "[libx264 @ 0x560510a9cb40] i16 v,h,dc,p: 35% 45%  9% 11%\n",
      "[libx264 @ 0x560510a9cb40] i8 v,h,dc,ddl,ddr,vr,hd,vl,hu: 26% 24% 21%  4%  5%  5%  6%  4%  5%\n",
      "[libx264 @ 0x560510a9cb40] i4 v,h,dc,ddl,ddr,vr,hd,vl,hu: 30% 20% 15%  6%  7%  7%  6%  5%  4%\n",
      "[libx264 @ 0x560510a9cb40] i8c dc,h,v,p: 48% 31% 17%  4%\n",
      "[libx264 @ 0x560510a9cb40] Weighted P-Frames: Y:0.7% UV:0.7%\n",
      "[libx264 @ 0x560510a9cb40] ref P L0: 69.6% 30.4%\n",
      "[libx264 @ 0x560510a9cb40] ref B L0: 79.2% 20.8%\n",
      "[libx264 @ 0x560510a9cb40] ref B L1: 93.6%  6.4%\n",
      "[libx264 @ 0x560510a9cb40] kb/s:470.87\n"
     ]
    }
   ],
   "source": [
    "videos = [\n",
    "    'videos/generate_image_24072727.mp4',\n",
    "    'videos/generate_image_511885051.mp4',\n",
    "    'videos/generate_image_363370577.mp4',\n",
    "    'videos/generate_image_520654098.mp4',\n",
    "    \n",
    "]\n",
    "\n",
    "\n",
    "overlay_videos = [\n",
    "        'videos/vecteezy_2-color-liquid-black-and-red-transition-green-screen_49115368.mp4',\n",
    "        'videos/vecteezy_red-liquid-transition-green-screen_49115367.mp4',\n",
    "        'videos/vecteezy_transition-ink-gradient-color-green-screen-free_48868911.mp4',\n",
    "        'videos/vecteezy_transitions-love-green-screen_48868982.mp4',\n",
    "        \n",
    "    ]\n",
    "\n",
    "short_overlay_videos = [\n",
    "        'videos/1.mp4',\n",
    "        'videos/2.mp4',\n",
    "        'videos/3.mp4',\n",
    "        'videos/4.mp4',  \n",
    "        'videos/5.mp4',  \n",
    "        'videos/6.mp4',  \n",
    "        'videos/7.mp4',  \n",
    "    ]\n",
    "\n",
    "output_video_avi = 'output.mp4'\n",
    "\n",
    "effects_next =[\n",
    "    2, \n",
    "    2, \n",
    "    2,\n",
    "    # 2, \n",
    "]\n",
    "\n",
    "concatenate_videos(videos, output_video_avi, overlay_videos, short_overlay_videos, effects_next)"
   ]
  },
  {
   "cell_type": "code",
   "execution_count": null,
   "id": "932d3e19-afdb-4335-b3c8-fa47a5791d21",
   "metadata": {},
   "outputs": [],
   "source": []
  }
 ],
 "metadata": {
  "kernelspec": {
   "display_name": "Python 3 (ipykernel)",
   "language": "python",
   "name": "python3"
  },
  "language_info": {
   "codemirror_mode": {
    "name": "ipython",
    "version": 3
   },
   "file_extension": ".py",
   "mimetype": "text/x-python",
   "name": "python",
   "nbconvert_exporter": "python",
   "pygments_lexer": "ipython3",
   "version": "3.11.10"
  }
 },
 "nbformat": 4,
 "nbformat_minor": 5
}
